# xmcd
#
# Track frame offsets:
#	150
#	16994
#	33806
#	56566
#	79941
#	97385
#	113886
#	133958
#	153112
#	169696
#	189208
#	205060
#	215471
#	239178
#	253500
#	271206
#	287220
#	300207
#	317958
#	335534
#
# Disc length: 4735 seconds
#
# Revision: 0
# Processed by: cddbd v1.5.2PL0 Copyright (c) Steve Scherf et al.
# Submitted via: EasyCDDAExtractor 9.0.0.1
#
DISCID=1f127d14
DTITLE=Hisa - Trenutni 1992-2002
DYEAR=2004
DGENRE=Acoustic
TTITLE0=Intro: trenutnki/poseben dan
TTITLE1=Neskoncna pot
TTITLE2=Nocna voznja
TTITLE3=Nevarna razmerja
TTITLE4=Srecna mesta
TTITLE5=Praznik
TTITLE6=Na vhodu mrak
TTITLE7=Spomin na maj
TTITLE8=Zaman
TTITLE9=Pesem za na pot
TTITLE10=Silicijevo nebo
TTITLE11=Ognjeni ples
TTITLE12=Kompas srca
TTITLE13=Majhna riba
TTITLE14=V parku kamnitih besed
TTITLE15=Na zdravje, svet!
TTITLE16=Kdo si
TTITLE17=Popotnik
TTITLE18=Melodija
TTITLE19=Ledene ceste
EXTD=
EXTT0=
EXTT1=
EXTT2=
EXTT3=
EXTT4=
EXTT5=
EXTT6=
EXTT7=
EXTT8=
EXTT9=
EXTT10=
EXTT11=
EXTT12=
EXTT13=
EXTT14=
EXTT15=
EXTT16=
EXTT17=
EXTT18=
EXTT19=
PLAYORDER=
